<svg version="1.0" xmlns="http://www.w3.org/2000/svg"
 width="400.000000pt" height="400.000000pt" viewBox="0 0 400.000000 400.000000"
 preserveAspectRatio="xMidYMid meet" fill="#3a589b">

<g transform="translate(0.000000,400.000000) scale(0.100000,-0.100000)"
fill="current" stroke="none">
<path d="M168 3986 c-64 -17 -116 -60 -142 -115 l-21 -46 0 -1830 0 -1830 22
-40 c24 -46 54 -75 103 -101 34 -18 98 -19 1870 -19 l1835 0 40 22 c46 24 75
54 101 103 18 34 19 98 19 1870 0 1772 -1 1836 -19 1870 -26 49 -55 79 -101
103 l-40 22 -1810 2 c-1435 1 -1820 -1 -1857 -11z m2065 -1106 c20 -22 27 -41
27 -69 0 -50 -326 -1638 -342 -1670 -36 -68 -138 -80 -190 -22 -15 17 -30 41
-33 54 -8 30 330 1670 350 1700 41 63 133 67 188 7z m-933 -156 c55 -33 76
-105 46 -162 -8 -15 -134 -146 -280 -292 l-266 -265 274 -275 c179 -179 277
-285 281 -303 22 -88 -58 -173 -142 -152 -19 4 -143 121 -365 343 l-338 337 0
50 0 50 343 342 c331 331 344 343 381 343 21 0 50 -7 66 -16z m1847 -327 l343
-342 0 -50 0 -50 -337 -337 c-223 -222 -347 -339 -365 -343 -85 -21 -165 64
-143 152 4 18 102 124 281 303 l274 275 -266 265 c-146 146 -272 277 -280 292
-43 82 16 177 111 178 39 0 46 -6 382 -343z"/>
</g>
</svg>

