<svg width="48" height="48" viewBox="0 0 48 48" fill="url(#paint0_linear_668_70399)" xmlns="http://www.w3.org/2000/svg">
<rect width="48" height="48" fill="current"/>
<g clip-path="url(#clip0_668_70399)" filter="url(#filter0_i_668_70399)">
<g filter="url(#filter1_i_668_70399)">
<path d="M33.3192 37.6073C35.2864 36.8472 36.8417 35.2919 37.6018 33.3247C37.9616 32.3928 38.2134 31.3295 38.2818 29.7743C38.298 29.41 38.3106 29.1041 38.3223 28.7974V18.4061C38.3142 18.1893 38.3052 17.9635 38.2935 17.7099C38.2251 16.1546 37.9733 15.086 37.6135 14.1595C37.242 13.1763 36.6699 12.2957 35.9215 11.5644C35.1893 10.8204 34.3032 10.243 33.3308 9.87775C32.3989 9.51794 31.3357 9.26607 29.7804 9.19771C28.2135 9.12305 27.716 9.10596 23.7428 9.10596C19.7696 9.10596 19.2713 9.12305 17.7106 9.19141C16.1554 9.25978 15.0867 9.51164 14.1602 9.87145C13.1771 10.243 12.2964 10.815 11.5642 11.5644C10.8212 12.2966 10.2437 13.1826 9.87761 14.1541C9.5178 15.086 9.26593 16.1492 9.19757 17.7045C9.12291 19.2715 9.10582 19.7689 9.10582 23.743C9.10582 27.7171 9.12291 28.2145 9.19127 29.7752C9.25964 31.3304 9.5115 32.4 9.87221 33.3256C10.2437 34.3088 10.8212 35.1894 11.5642 35.9216C12.2964 36.6646 13.1825 37.243 14.1548 37.6082C15.0867 37.968 16.15 38.2199 17.7052 38.2882C19.2659 38.3575 19.7634 38.3746 23.7374 38.3746C27.7115 38.3746 28.2081 38.3575 29.7696 38.2882C31.3249 38.2199 32.3935 37.968 33.3201 37.6082L33.3192 37.6073ZM23.7482 35.7435C19.8425 35.7435 19.3739 35.7264 17.8357 35.658C16.4063 35.5951 15.6345 35.3549 15.12 35.1552C14.4859 34.9204 13.9084 34.5489 13.4388 34.0632C12.9531 33.5882 12.5807 33.017 12.3468 32.382C12.1471 31.8675 11.9069 31.0894 11.844 29.6663C11.7756 28.1227 11.7585 27.6595 11.7585 23.7538C11.7585 19.848 11.7756 19.3794 11.844 17.8421C11.9069 16.4128 12.1471 15.641 12.3468 15.1265C12.5816 14.4914 12.9531 13.9139 13.4451 13.4453C13.9192 12.9595 14.4913 12.588 15.1254 12.3532C15.6399 12.1535 16.418 11.9134 17.8411 11.8504C19.3847 11.782 19.8479 11.7649 23.7527 11.7649C27.6576 11.7649 28.1271 11.782 29.6653 11.8504C31.0946 11.9134 31.8664 12.1535 32.3809 12.3532C33.0151 12.588 33.5926 12.9595 34.0613 13.4453C34.547 13.9202 34.9194 14.4914 35.1533 15.1265C35.353 15.641 35.5931 16.4182 35.6561 17.8421C35.7245 19.3857 35.7416 19.8489 35.7416 23.7538C35.7416 27.6586 35.7245 28.1164 35.6561 29.66C35.5931 31.0894 35.353 31.8612 35.1533 32.3757C34.6612 33.6512 33.6493 34.6632 32.3747 35.1543C31.8601 35.354 31.0829 35.5942 29.659 35.6571C28.1154 35.7255 27.6522 35.7426 23.7473 35.7426L23.7482 35.7435Z" fill="white"/>
<path d="M23.7428 16.2229C19.5915 16.2229 16.2237 19.5907 16.2237 23.742C16.2237 27.8933 19.5915 31.2611 23.7428 31.2611C27.8941 31.2611 31.261 27.8933 31.261 23.742C31.261 19.5907 27.8932 16.2229 23.7428 16.2229ZM23.7428 28.6183C21.0496 28.6183 18.8656 26.4343 18.8656 23.7411C18.8656 21.0479 21.0496 18.8639 23.7428 18.8639C26.436 18.8639 28.62 21.0479 28.62 23.7411C28.62 26.4343 26.436 28.6183 23.7428 28.6183Z" fill="white"/>
<path d="M33.3138 15.9261C33.3138 14.9564 32.5276 14.1711 31.5579 14.1711C30.5882 14.1711 29.8029 14.9573 29.8029 15.9261C29.8029 16.8949 30.5891 17.6811 31.5579 17.6811C32.5267 17.6811 33.3138 16.8958 33.3138 15.9261Z" fill="white"/>
</g>
</g>
<defs>
<filter id="filter0_i_668_70399" x="9.10582" y="9.10596" width="29.2686" height="29.7686" filterUnits="userSpaceOnUse" color-interpolation-filters="sRGB">
<feFlood flood-opacity="0" result="BackgroundImageFix"/>
<feBlend mode="normal" in="SourceGraphic" in2="BackgroundImageFix" result="shape"/>
<feColorMatrix in="SourceAlpha" type="matrix" values="0 0 0 0 0 0 0 0 0 0 0 0 0 0 0 0 0 0 127 0" result="hardAlpha"/>
<feOffset dy="0.5"/>
<feGaussianBlur stdDeviation="1.25"/>
<feComposite in2="hardAlpha" operator="arithmetic" k2="-1" k3="1"/>
<feColorMatrix type="matrix" values="0 0 0 0 0 0 0 0 0 0 0 0 0 0 0 0 0 0 0.2 0"/>
<feBlend mode="normal" in2="shape" result="effect1_innerShadow_668_70399"/>
</filter>
<filter id="filter1_i_668_70399" x="9.10582" y="9.10596" width="29.2165" height="29.7686" filterUnits="userSpaceOnUse" color-interpolation-filters="sRGB">
<feFlood flood-opacity="0" result="BackgroundImageFix"/>
<feBlend mode="normal" in="SourceGraphic" in2="BackgroundImageFix" result="shape"/>
<feColorMatrix in="SourceAlpha" type="matrix" values="0 0 0 0 0 0 0 0 0 0 0 0 0 0 0 0 0 0 127 0" result="hardAlpha"/>
<feOffset dy="0.5"/>
<feGaussianBlur stdDeviation="1.25"/>
<feComposite in2="hardAlpha" operator="arithmetic" k2="-1" k3="1"/>
<feColorMatrix type="matrix" values="0 0 0 0 0 0 0 0 0 0 0 0 0 0 0 0 0 0 0.1 0"/>
<feBlend mode="normal" in2="shape" result="effect1_innerShadow_668_70399"/>
</filter>
<linearGradient id="paint0_linear_668_70399" x1="24" y1="-1.49563" x2="24" y2="50.5155" gradientUnits="userSpaceOnUse">
<stop stop-color="#FCA759"/>
<stop offset="0.19" stop-color="#E82D56"/>
<stop offset="0.74" stop-color="#A22DB4"/>
<stop offset="1" stop-color="#643DCE"/>
</linearGradient>
<clipPath id="clip0_668_70399">
<rect width="29.2686" height="29.2686" fill="white" transform="translate(9.10582 9.10596)"/>
</clipPath>
</defs>
</svg>
