<svg width="48" height="48" viewBox="0 0 48 48" fill="url(#paint0_linear_668_70424)" xmlns="http://www.w3.org/2000/svg">
<rect width="48" height="48" fill="current"/>
<g filter="url(#filter0_i_668_70424)">
<g clip-path="url(#clip0_668_70424)">
<path d="M37.817 24.2503C37.8212 24.5364 37.7854 24.8219 37.7096 25.098C37.6337 25.3742 37.5189 25.6388 37.3683 25.8831C37.2182 26.1274 37.0339 26.3498 36.8211 26.5434C36.6084 26.7371 36.3693 26.8999 36.1107 27.0273C36.1165 27.1035 36.1212 27.1803 36.1239 27.257C36.1302 27.41 36.1302 27.5633 36.1239 27.7163C36.1212 27.7931 36.1165 27.8698 36.1107 27.946C36.1107 32.6231 30.6125 36.4232 23.8293 36.4232C17.0461 36.4232 11.548 32.6231 11.548 27.946C11.5422 27.8698 11.5374 27.7931 11.5348 27.7163C11.5285 27.5633 11.5285 27.41 11.5348 27.257C11.5374 27.1803 11.5422 27.1035 11.548 27.0273C11.1428 26.8427 10.783 26.5731 10.4934 26.2371C10.2038 25.9011 9.99127 25.5067 9.87059 25.0813C9.75011 24.6557 9.72445 24.2092 9.79538 23.7728C9.86631 23.3363 10.0321 22.9204 10.2814 22.5538C10.5304 22.1873 10.8569 21.8788 11.2382 21.6499C11.6195 21.4209 12.0465 21.277 12.4896 21.228C12.9327 21.1787 13.3814 21.2256 13.8044 21.3653C14.2274 21.505 14.6148 21.7342 14.9396 22.037C15.5425 21.632 16.1742 21.2707 16.8297 20.956C17.4854 20.6418 18.1631 20.3745 18.8578 20.1573C19.5524 19.9402 20.2624 19.7737 20.9812 19.6583C21.7001 19.543 22.4269 19.4798 23.1552 19.4688L24.7141 12.2236C24.7315 12.1395 24.7657 12.0602 24.8147 11.9892C24.8631 11.9187 24.9258 11.8582 24.9979 11.8117C25.0706 11.7652 25.1517 11.7334 25.237 11.7177C25.3218 11.7026 25.4093 11.7042 25.4935 11.7224L30.6546 12.7456C31.1755 11.8587 32.2688 11.4787 33.2342 11.8482C34.1995 12.2178 34.7514 13.2279 34.5355 14.2311C34.3201 15.2344 33.4006 15.9339 32.3673 15.8812C31.3335 15.8284 30.4914 15.0392 30.3808 14.0192L25.8727 13.0796L24.5034 19.5941C25.2228 19.6093 25.9406 19.6761 26.6506 19.7935C28.0722 20.0284 29.4522 20.4655 30.7479 21.0912C31.395 21.4033 32.0186 21.7613 32.6138 22.1623C33.0417 21.7551 33.5795 21.4793 34.1621 21.3684C34.7447 21.257 35.3474 21.3152 35.8974 21.5359C36.4474 21.7565 36.9214 22.1302 37.2619 22.6118C37.6026 23.0934 37.7954 23.6625 37.817 24.2503ZM16.9113 27.1374C17.0177 27.3906 17.1725 27.6208 17.3684 27.8145C17.5638 28.0087 17.7961 28.1621 18.0515 28.2676C18.3072 28.3724 18.5811 28.4263 18.8578 28.4263C19.7099 28.4263 20.4778 27.9173 20.8043 27.1374C21.1303 26.3571 20.9496 25.4592 20.3471 24.8621C19.7447 24.2649 18.8388 24.0859 18.0515 24.409C17.2647 24.7326 16.7512 25.4937 16.7512 26.3383C16.7512 26.6123 16.8055 26.8838 16.9113 27.1374ZM28.9768 32.1496C29.0847 32.0452 29.1463 31.9027 29.1484 31.7534C29.1505 31.6036 29.0921 31.4596 28.9868 31.3525C28.8814 31.2455 28.7377 31.1845 28.587 31.1824C28.4359 31.1803 28.2905 31.2382 28.1689 31.3285C27.8521 31.5537 27.5167 31.7519 27.1661 31.921C26.8156 32.0902 26.4513 32.2297 26.077 32.3381C25.7031 32.4461 25.3203 32.5229 24.9332 32.5672C24.5456 32.6116 24.1553 32.6231 23.7661 32.6022C23.3775 32.6194 22.9877 32.6038 22.6017 32.5557C22.2156 32.5082 21.8343 32.4279 21.4621 32.3156C21.0892 32.2039 20.7274 32.0609 20.3793 31.8886C20.0312 31.7164 19.6983 31.5149 19.3844 31.2868C19.2754 31.198 19.1369 31.1526 18.9958 31.1594C18.8546 31.1662 18.7214 31.2252 18.6213 31.3238C18.5218 31.423 18.4623 31.5551 18.4554 31.695C18.4486 31.8349 18.4944 31.9722 18.5839 32.0802C18.9542 32.3569 19.3476 32.6012 19.7599 32.811C20.1723 33.0208 20.6026 33.1947 21.0449 33.3314C21.4873 33.4682 21.9408 33.5668 22.4005 33.6269C22.8603 33.6864 23.3243 33.7067 23.7872 33.688C24.2501 33.7067 24.7141 33.6864 25.1738 33.6269C26.0947 33.5068 26.9879 33.2309 27.8144 32.811C28.2268 32.6012 28.6202 32.3569 28.9904 32.0802L28.9768 32.1496ZM28.5902 28.5933C28.8756 28.5964 29.159 28.5416 29.4228 28.433C29.6867 28.3239 29.9252 28.1632 30.1243 27.9601C30.3234 27.7571 30.4782 27.5159 30.5804 27.2512C30.6826 26.9869 30.7294 26.7047 30.7178 26.4218C30.7178 25.5772 30.2044 24.8161 29.4176 24.4925C28.6302 24.1694 27.7244 24.3484 27.1219 24.9456C26.5194 25.5428 26.3388 26.4406 26.6648 27.221C26.9913 28.0008 27.7591 28.5098 28.6113 28.5098L28.5902 28.5933Z" fill="white"/>
</g>
</g>
<defs>
<filter id="filter0_i_668_70424" x="9.1058" y="9.1058" width="29.2686" height="29.7686" filterUnits="userSpaceOnUse" color-interpolation-filters="sRGB">
<feFlood flood-opacity="0" result="BackgroundImageFix"/>
<feBlend mode="normal" in="SourceGraphic" in2="BackgroundImageFix" result="shape"/>
<feColorMatrix in="SourceAlpha" type="matrix" values="0 0 0 0 0 0 0 0 0 0 0 0 0 0 0 0 0 0 127 0" result="hardAlpha"/>
<feOffset dy="0.5"/>
<feGaussianBlur stdDeviation="1.25"/>
<feComposite in2="hardAlpha" operator="arithmetic" k2="-1" k3="1"/>
<feColorMatrix type="matrix" values="0 0 0 0 0 0 0 0 0 0 0 0 0 0 0 0 0 0 0.1 0"/>
<feBlend mode="normal" in2="shape" result="effect1_innerShadow_668_70424"/>
</filter>
<linearGradient id="paint0_linear_668_70424" x1="27.3174" y1="49.4315" x2="4.87811" y2="-1.02789e-06" gradientUnits="userSpaceOnUse">
<stop stop-color="#FF4500"/>
<stop offset="1" stop-color="#F04100"/>
</linearGradient>
<clipPath id="clip0_668_70424">
<rect x="9.1058" y="9.1058" width="29.2686" height="29.2686" rx="8" fill="white"/>
</clipPath>
</defs>
</svg>
