<svg width="48" height="48" viewBox="0 0 48 48" fill="url(#paint0_linear_668_70761)" xmlns="http://www.w3.org/2000/svg">
<rect width="48" height="48" fill="current"/>
<g filter="url(#filter0_i_668_70761)">
<g clip-path="url(#clip0_668_70761)">
<path d="M23.8575 11.0571H23.8564C22.7256 11.0574 21.6241 11.2749 20.5825 11.7036C19.5827 12.1151 18.6829 12.7018 17.908 13.4475C17.1342 14.1922 16.5253 15.0567 16.0981 16.017C15.6539 17.0157 15.428 18.0711 15.4266 19.1541C15.426 19.6858 15.4144 20.2018 15.3923 20.696L14.9507 20.5968C14.7887 20.5605 14.6221 20.542 14.4557 20.542C13.9752 20.5419 13.5012 20.6974 13.121 20.9798C12.7244 21.2744 12.4462 21.694 12.3379 22.1612C12.0801 23.2732 12.7215 24.3959 13.833 24.7907L15.1552 25.3016C14.2797 27.8743 12.6654 28.3673 11.5783 28.6993C11.2898 28.7874 11.0407 28.8635 10.8035 28.9762C9.85825 29.4254 9.75621 30.1863 9.75621 30.4925C9.75621 31.0792 10.0462 31.6145 10.5729 31.9999C10.8352 32.1918 11.16 32.3501 11.566 32.4839C12.1193 32.6663 12.7608 32.7821 13.2821 32.8749C13.3073 33.0598 13.3442 33.2585 13.4065 33.4587C13.665 34.2902 14.2105 34.6625 14.6226 34.8284C15.0137 34.9859 15.4177 35.0041 15.6876 35.0041C15.9516 35.0041 16.2306 34.9843 16.5261 34.9633C16.843 34.9408 17.1708 34.9176 17.4941 34.9176C17.9952 34.9176 18.3682 34.9749 18.6344 35.0926C18.9999 35.2543 19.3876 35.4723 19.798 35.703C20.9406 36.3454 22.2356 37.0736 23.8696 37.0736C25.5035 37.0736 26.7984 36.3454 27.941 35.703C28.3514 35.4722 28.7391 35.2543 29.1047 35.0926C29.3709 34.9748 29.7439 34.9176 30.245 34.9176C30.5683 34.9176 30.8961 34.9409 31.213 34.9633C31.5084 34.9843 31.7875 35.0041 32.0515 35.0041C32.3213 35.0041 32.7253 34.9859 33.1164 34.8284C33.5286 34.6625 34.074 34.2902 34.3325 33.4587C34.3948 33.2585 34.4318 33.0598 34.4569 32.8749C34.9783 32.782 35.6198 32.6663 36.1731 32.4839C36.5791 32.3501 36.9039 32.1918 37.1661 31.9999C37.6928 31.6145 37.9828 31.0792 37.9828 30.4925C37.9828 30.1863 37.8808 29.4254 36.9355 28.9763C36.6983 28.8636 36.4491 28.7875 36.1606 28.6994C35.0736 28.3674 33.4592 27.8743 32.5838 25.3017L33.9058 24.7907C35.0173 24.396 35.6588 23.2732 35.401 22.1612C35.2927 21.694 35.0146 21.2744 34.6179 20.9798C34.2377 20.6975 33.7638 20.542 33.2834 20.542C33.117 20.542 32.9504 20.5604 32.7883 20.5968L32.3467 20.6959C32.3245 20.2018 32.313 19.6858 32.3124 19.154C32.311 18.0702 32.0833 17.0137 31.6355 16.0138C31.2058 15.0538 30.5935 14.1896 29.8158 13.4448C29.0381 12.7001 28.1357 12.1141 27.1339 11.703C26.0903 11.2748 24.988 11.0575 23.8575 11.0571Z" fill="white"/>
</g>
</g>
<defs>
<filter id="filter0_i_668_70761" x="9.1058" y="9.1058" width="29.2686" height="29.7686" filterUnits="userSpaceOnUse" color-interpolation-filters="sRGB">
<feFlood flood-opacity="0" result="BackgroundImageFix"/>
<feBlend mode="normal" in="SourceGraphic" in2="BackgroundImageFix" result="shape"/>
<feColorMatrix in="SourceAlpha" type="matrix" values="0 0 0 0 0 0 0 0 0 0 0 0 0 0 0 0 0 0 127 0" result="hardAlpha"/>
<feOffset dy="0.5"/>
<feGaussianBlur stdDeviation="1.25"/>
<feComposite in2="hardAlpha" operator="arithmetic" k2="-1" k3="1"/>
<feColorMatrix type="matrix" values="0 0 0 0 0 0 0 0 0 0 0 0 0 0 0 0 0 0 0.1 0"/>
<feBlend mode="normal" in2="shape" result="effect1_innerShadow_668_70761"/>
</filter>
<linearGradient id="paint0_linear_668_70761" x1="27.3174" y1="49.4315" x2="4.87811" y2="-1.02789e-06" gradientUnits="userSpaceOnUse">
<stop stop-color="#DAAD0C"/>
<stop offset="1" stop-color="#FFED00"/>
</linearGradient>
<clipPath id="clip0_668_70761">
<rect x="9.1058" y="9.1058" width="29.2686" height="29.2686" rx="8" fill="white"/>
</clipPath>
</defs>
</svg>
