<?xml version="1.0" encoding="utf-8"?>
<svg id="master-artboard" viewBox="0 0 1000 1000" version="1.1" xmlns="http://www.w3.org/2000/svg" x="0px" y="0px" style="enable-background:new 0 0 1400 980;" width="1000px" height="1000px" fill="#fff"><rect id="ee-background" x="0" y="0" width="1000" height="1000" fill="current"/>
<g transform="matrix(15.21261978149414, 0, 0, 15.21261978149414, 157.95425415039085, 131.90910430867643)"><g transform="matrix(1 0 0 1 0 0)">
	<g>
        <path d="M44 41.992188C 44.01953 45.289062 41.320312 47.972656 37.976562 47.98828C 37.73047 47.992188 37.48047 47.976562 37.234375 47.94922C 34.132812 47.496094 31.859375 44.835938 31.933594 41.75L31.933594 41.75L31.933594 6.242188C 31.859375 3.148438 34.140625 0.488281 37.242188 0.0429688C 40.5625 -0.34375 43.570312 2 43.960938 5.273438C 43.98828 5.511719 44 5.753906 44 5.996094L44 5.996094L44 41.992188z" stroke="none" fill="#F9AB00" fill-rule="nonzero"/>
        <path d="M6.035156 36.109375C 9.367188 36.109375 12.066406 38.76953 12.066406 42.054688C 12.066406 45.339844 9.367188 48 6.035156 48C 2.699219 48 0 45.339844 0 42.054688C 0 38.76953 2.699219 36.109375 6.035156 36.109375zM21.90625 18.089844C 18.558594 18.273438 15.960938 21.039062 16.039062 24.34375L16.039062 24.34375L16.039062 40.3125C 16.039062 44.64453 17.976562 47.273438 20.8125 47.835938C 24.082031 48.48828 27.269531 46.40625 27.933594 43.183594C 28.015625 42.785156 28.054688 42.38672 28.054688 41.984375L28.054688 41.984375L28.054688 24.066406C 28.058594 20.769531 25.355469 18.09375 22.011719 18.089844C 21.976562 18.089844 21.941406 18.089844 21.90625 18.089844z" stroke="none" fill="#E37400" fill-rule="nonzero"/>
	</g>
</g></g></svg>